{"cells":[{"cell_type":"code","execution_count":null,"metadata":{"id":"vis5Ajdv048b"},"outputs":[],"source":["import cv2\n","import numpy as np\n","from matplotlib import pyplot as plt\n","from google.colab.patches import cv2_imshow\n","\n","# Define our imshow function\n","def imshow(title = \"Image\", image = None, size = 10):\n","    w, h = image.shape[0], image.shape[1]\n","    aspect_ratio = w/h\n","    plt.figure(figsize=(size * aspect_ratio,size))\n","    plt.imshow(cv2.cvtColor(image, cv2.COLOR_BGR2RGB))\n","    plt.title(title)\n","    plt.show()\n"]},{"cell_type":"code","execution_count":null,"metadata":{"colab":{"base_uri":"https://localhost:8080/"},"executionInfo":{"elapsed":27875,"status":"ok","timestamp":1689916429110,"user":{"displayName":"dhriti krishnan","userId":"16271907787076285689"},"user_tz":-330},"id":"fstiDPCx3XM9","outputId":"22e4e281-105e-4b2e-b63e-7e72f6e74561"},"outputs":[{"name":"stdout","output_type":"stream","text":["Mounted at /content/drive\n"]}],"source":["from google.colab import drive\n","drive.mount('/content/drive')"]},{"cell_type":"code","execution_count":null,"metadata":{"id":"_ArKImbU5KfK"},"outputs":[],"source":["cap = cv2.VideoCapture('Red_Snapper.avi')\n","\n","\n","width = int(cap.get(3))\n","height = int(cap.get(4))\n","\n","\n","out = cv2.VideoWriter('Red_Snapper_Out.avi', cv2.VideoWriter_fourcc('M','J','P','G'), 30, (width, height))\n","\n","\n","ret, first_frame = cap.read()\n","previous_gray = cv2.cvtColor(first_frame, cv2.COLOR_BGR2GRAY)\n","hsv = np.zeros_like(first_frame)\n","hsv[...,1] = 255\n","\n","while True:\n","\n","\n","    ret, frame2 = cap.read()\n","\n","    if ret == True:\n","      next = cv2.cvtColor(frame2,cv2.COLOR_BGR2GRAY)\n","\n","\n","      flow = cv2.calcOpticalFlowFarneback(previous_gray, next, None, 0.5, 3, 15, 3, 5, 1.2, 0)\n","\n","\n","      magnitude, angle = cv2.cartToPolar(flow[...,0], flow[...,1])\n","      hsv[...,0] = angle * (180 / (np.pi/2))\n","      hsv[...,2] = cv2.normalize(magnitude, None, 0, 255, cv2.NORM_MINMAX)\n","      final = cv2.cvtColor(hsv, cv2.COLOR_HSV2BGR)\n","\n","\n","      out.write(final)\n","\n","      previous_gray = next\n","\n","    else:\n","      break\n","\n","cap.release()\n","out.release()"]},{"cell_type":"code","execution_count":null,"metadata":{"colab":{"base_uri":"https://localhost:8080/"},"executionInfo":{"elapsed":80023,"status":"ok","timestamp":1689919691583,"user":{"displayName":"dhriti krishnan","userId":"16271907787076285689"},"user_tz":-330},"id":"3Vzcdn1DB5WL","outputId":"9f811e03-7393-4a80-9248-1f452a67a975"},"outputs":[{"name":"stdout","output_type":"stream","text":["ffmpeg version 4.4.2-0ubuntu0.22.04.1 Copyright (c) 2000-2021 the FFmpeg developers\n","  built with gcc 11 (Ubuntu 11.2.0-19ubuntu1)\n","  configuration: --prefix=/usr --extra-version=0ubuntu0.22.04.1 --toolchain=hardened --libdir=/usr/lib/x86_64-linux-gnu --incdir=/usr/include/x86_64-linux-gnu --arch=amd64 --enable-gpl --disable-stripping --enable-gnutls --enable-ladspa --enable-libaom --enable-libass --enable-libbluray --enable-libbs2b --enable-libcaca --enable-libcdio --enable-libcodec2 --enable-libdav1d --enable-libflite --enable-libfontconfig --enable-libfreetype --enable-libfribidi --enable-libgme --enable-libgsm --enable-libjack --enable-libmp3lame --enable-libmysofa --enable-libopenjpeg --enable-libopenmpt --enable-libopus --enable-libpulse --enable-librabbitmq --enable-librubberband --enable-libshine --enable-libsnappy --enable-libsoxr --enable-libspeex --enable-libsrt --enable-libssh --enable-libtheora --enable-libtwolame --enable-libvidstab --enable-libvorbis --enable-libvpx --enable-libwebp --enable-libx265 --enable-libxml2 --enable-libxvid --enable-libzimg --enable-libzmq --enable-libzvbi --enable-lv2 --enable-omx --enable-openal --enable-opencl --enable-opengl --enable-sdl2 --enable-pocketsphinx --enable-librsvg --enable-libmfx --enable-libdc1394 --enable-libdrm --enable-libiec61883 --enable-chromaprint --enable-frei0r --enable-libx264 --enable-shared\n","  libavutil      56. 70.100 / 56. 70.100\n","  libavcodec     58.134.100 / 58.134.100\n","  libavformat    58. 76.100 / 58. 76.100\n","  libavdevice    58. 13.100 / 58. 13.100\n","  libavfilter     7.110.100 /  7.110.100\n","  libswscale      5.  9.100 /  5.  9.100\n","  libswresample   3.  9.100 /  3.  9.100\n","  libpostproc    55.  9.100 / 55.  9.100\n","Input #0, avi, from 'Red_Snapper_Out.avi':\n","  Metadata:\n","    software        : Lavf59.27.100\n","  Duration: 00:01:14.13, start: 0.000000, bitrate: 4174 kb/s\n","  Stream #0:0: Video: mjpeg (Baseline) (MJPG / 0x47504A4D), yuvj420p(pc, bt470bg/unknown/unknown), 1280x720, 4168 kb/s, 30 fps, 30 tbr, 30 tbn, 30 tbc\n","Stream mapping:\n","  Stream #0:0 -> #0:0 (mjpeg (native) -> h264 (libx264))\n","Press [q] to stop, [?] for help\n","\u001b[1;36m[libx264 @ 0x56ba701b9080] \u001b[0musing cpu capabilities: MMX2 SSE2Fast SSSE3 SSE4.2 AVX FMA3 BMI2 AVX2\n","\u001b[1;36m[libx264 @ 0x56ba701b9080] \u001b[0mprofile High, level 3.1, 4:2:0, 8-bit\n","\u001b[1;36m[libx264 @ 0x56ba701b9080] \u001b[0m264 - core 163 r3060 5db6aa6 - H.264/MPEG-4 AVC codec - Copyleft 2003-2021 - http://www.videolan.org/x264.html - options: cabac=1 ref=3 deblock=1:0:0 analyse=0x3:0x113 me=hex subme=7 psy=1 psy_rd=1.00:0.00 mixed_ref=1 me_range=16 chroma_me=1 trellis=1 8x8dct=1 cqm=0 deadzone=21,11 fast_pskip=1 chroma_qp_offset=-2 threads=3 lookahead_threads=1 sliced_threads=0 nr=0 decimate=1 interlaced=0 bluray_compat=0 constrained_intra=0 bframes=3 b_pyramid=2 b_adapt=1 b_bias=0 direct=1 weightb=1 open_gop=0 weightp=2 keyint=250 keyint_min=25 scenecut=40 intra_refresh=0 rc_lookahead=40 rc=crf mbtree=1 crf=23.0 qcomp=0.60 qpmin=0 qpmax=69 qpstep=4 ip_ratio=1.40 aq=1:1.00\n","Output #0, mp4, to 'Red_Snapper_Out.mp4':\n","  Metadata:\n","    software        : Lavf59.27.100\n","    encoder         : Lavf58.76.100\n","  Stream #0:0: Video: h264 (avc1 / 0x31637661), yuvj420p(pc, bt470bg/unknown/unknown, progressive), 1280x720, q=2-31, 30 fps, 15360 tbn\n","    Metadata:\n","      encoder         : Lavc58.134.100 libx264\n","    Side data:\n","      cpb: bitrate max/min/avg: 0/0/0 buffer size: 0 vbv_delay: N/A\n","frame= 2224 fps= 28 q=-1.0 Lsize=   11706kB time=00:01:14.03 bitrate=1295.3kbits/s speed=0.947x    \n","video:11685kB audio:0kB subtitle:0kB other streams:0kB global headers:0kB muxing overhead: 0.179938%\n","\u001b[1;36m[libx264 @ 0x56ba701b9080] \u001b[0mframe I:71    Avg QP:19.32  size:  9594\n","\u001b[1;36m[libx264 @ 0x56ba701b9080] \u001b[0mframe P:1284  Avg QP:22.78  size:  6766\n","\u001b[1;36m[libx264 @ 0x56ba701b9080] \u001b[0mframe B:869   Avg QP:21.37  size:  2987\n","\u001b[1;36m[libx264 @ 0x56ba701b9080] \u001b[0mconsecutive B-frames: 39.5% 20.1% 15.4% 25.0%\n","\u001b[1;36m[libx264 @ 0x56ba701b9080] \u001b[0mmb I  I16..4: 13.1% 85.4%  1.5%\n","\u001b[1;36m[libx264 @ 0x56ba701b9080] \u001b[0mmb P  I16..4:  1.2% 14.4%  1.2%  P16..4:  3.1%  0.4%  0.1%  0.0%  0.0%    skip:79.7%\n","\u001b[1;36m[libx264 @ 0x56ba701b9080] \u001b[0mmb B  I16..4:  1.3%  3.0%  0.4%  B16..8:  7.6%  0.7%  0.1%  direct: 0.3%  skip:86.6%  L0:51.6% L1:46.9% BI: 1.6%\n","\u001b[1;36m[libx264 @ 0x56ba701b9080] \u001b[0m8x8 transform intra:83.2% inter:89.3%\n","\u001b[1;36m[libx264 @ 0x56ba701b9080] \u001b[0mcoded y,uvDC,uvAC intra: 37.5% 61.0% 51.3% inter: 1.0% 1.8% 0.9%\n","\u001b[1;36m[libx264 @ 0x56ba701b9080] \u001b[0mi16 v,h,dc,p: 66% 11%  9% 14%\n","\u001b[1;36m[libx264 @ 0x56ba701b9080] \u001b[0mi8 v,h,dc,ddl,ddr,vr,hd,vl,hu: 35% 17% 29%  3%  3%  3%  3%  3%  4%\n","\u001b[1;36m[libx264 @ 0x56ba701b9080] \u001b[0mi4 v,h,dc,ddl,ddr,vr,hd,vl,hu: 31% 23% 18%  4%  5%  5%  5%  4%  4%\n","\u001b[1;36m[libx264 @ 0x56ba701b9080] \u001b[0mi8c dc,h,v,p: 63% 15% 15%  7%\n","\u001b[1;36m[libx264 @ 0x56ba701b9080] \u001b[0mWeighted P-Frames: Y:27.4% UV:24.2%\n","\u001b[1;36m[libx264 @ 0x56ba701b9080] \u001b[0mref P L0: 56.9%  7.1% 24.5% 10.5%  1.0%\n","\u001b[1;36m[libx264 @ 0x56ba701b9080] \u001b[0mref B L0: 80.4% 17.4%  2.1%\n","\u001b[1;36m[libx264 @ 0x56ba701b9080] \u001b[0mref B L1: 97.1%  2.9%\n","\u001b[1;36m[libx264 @ 0x56ba701b9080] \u001b[0mkb/s:1291.14\n"]}],"source":["!ffmpeg -i Red_Snapper_Out.avi Red_Snapper_Out.mp4 -y"]},{"cell_type":"code","execution_count":null,"metadata":{"id":"59rtIXnV-g_s"},"outputs":[],"source":["from IPython.display import HTML\n","from base64 import b64encode\n","\n","mp4 = open('Red_Snapper_Out.mp4','rb').read()\n","data_url = \"data:video/mp4;base64,\" + b64encode(mp4).decode()"]},{"cell_type":"code","execution_count":null,"metadata":{"colab":{"background_save":true,"base_uri":"https://localhost:8080/","height":761,"output_embedded_package_id":"1F7D3_NycsvCV0xy8-3MSznNamFOx2kPJ"},"executionInfo":{"elapsed":17502,"status":"ok","timestamp":1689919723071,"user":{"displayName":"dhriti krishnan","userId":"16271907787076285689"},"user_tz":-330},"id":"ccEUMDK9-qRb","outputId":"f3c8871b-d1ea-4443-9468-ea7200cedaaf"},"outputs":[{"output_type":"display_data","data":{"text/plain":"Output hidden; open in https://colab.research.google.com to view."},"metadata":{}}],"source":["HTML(\"\"\"\n","<video controls>\n","      <source src=\"%s\" type=\"video/mp4\">\n","</video>\n","\"\"\" % data_url)"]},{"cell_type":"code","source":["cap = cv2.VideoCapture('Red_Snapper.avi')\n","\n","\n","width = int(cap.get(3))\n","height = int(cap.get(4))\n","\n","\n","out = cv2.VideoWriter('Red_Snapper_Out_2.avi', cv2.VideoWriter_fourcc('M','J','P','G'), 30, (width, height))\n","\n","\n","ret, first_frame = cap.read()\n","previous_gray = cv2.cvtColor(first_frame, cv2.COLOR_BGR2GRAY)\n","hsv = np.zeros_like(first_frame)\n","hsv[...,1] = 255\n","\n","while True:\n","\n","\n","    ret, frame2 = cap.read()\n","\n","    if ret == True:\n","      next = cv2.cvtColor(frame2,cv2.COLOR_BGR2GRAY)\n","\n","\n","      flow = cv2.calcOpticalFlowFarneback(previous_gray, next, None, 0.5, 3, 15, 3, 7, 1.5, 0)\n","\n","\n","      magnitude, angle = cv2.cartToPolar(flow[...,0], flow[...,1])\n","      hsv[...,0] = angle * (180 / (np.pi/2))\n","      hsv[...,2] = cv2.normalize(magnitude, None, 0, 255, cv2.NORM_MINMAX)\n","      final = cv2.cvtColor(hsv, cv2.COLOR_HSV2BGR)\n","\n","\n","      out.write(final)\n","\n","      previous_gray = next\n","\n","    else:\n","      break\n","\n","cap.release()\n","out.release()"],"metadata":{"id":"SPJMjamRGPpP","executionInfo":{"status":"ok","timestamp":1689921398625,"user_tz":-330,"elapsed":1000415,"user":{"displayName":"dhriti krishnan","userId":"16271907787076285689"}}},"execution_count":13,"outputs":[]},{"cell_type":"code","source":["!ffmpeg -i Red_Snapper_Out_2.avi Red_Snapper_Out_2.mp4 -y"],"metadata":{"colab":{"base_uri":"https://localhost:8080/"},"id":"9RZ0ribAKvAX","executionInfo":{"status":"ok","timestamp":1689921957210,"user_tz":-330,"elapsed":74087,"user":{"displayName":"dhriti krishnan","userId":"16271907787076285689"}},"outputId":"5fd54490-ff2f-4be4-8efd-d72a55462cf7"},"execution_count":18,"outputs":[{"output_type":"stream","name":"stdout","text":["ffmpeg version 4.4.2-0ubuntu0.22.04.1 Copyright (c) 2000-2021 the FFmpeg developers\n","  built with gcc 11 (Ubuntu 11.2.0-19ubuntu1)\n","  configuration: --prefix=/usr --extra-version=0ubuntu0.22.04.1 --toolchain=hardened --libdir=/usr/lib/x86_64-linux-gnu --incdir=/usr/include/x86_64-linux-gnu --arch=amd64 --enable-gpl --disable-stripping --enable-gnutls --enable-ladspa --enable-libaom --enable-libass --enable-libbluray --enable-libbs2b --enable-libcaca --enable-libcdio --enable-libcodec2 --enable-libdav1d --enable-libflite --enable-libfontconfig --enable-libfreetype --enable-libfribidi --enable-libgme --enable-libgsm --enable-libjack --enable-libmp3lame --enable-libmysofa --enable-libopenjpeg --enable-libopenmpt --enable-libopus --enable-libpulse --enable-librabbitmq --enable-librubberband --enable-libshine --enable-libsnappy --enable-libsoxr --enable-libspeex --enable-libsrt --enable-libssh --enable-libtheora --enable-libtwolame --enable-libvidstab --enable-libvorbis --enable-libvpx --enable-libwebp --enable-libx265 --enable-libxml2 --enable-libxvid --enable-libzimg --enable-libzmq --enable-libzvbi --enable-lv2 --enable-omx --enable-openal --enable-opencl --enable-opengl --enable-sdl2 --enable-pocketsphinx --enable-librsvg --enable-libmfx --enable-libdc1394 --enable-libdrm --enable-libiec61883 --enable-chromaprint --enable-frei0r --enable-libx264 --enable-shared\n","  libavutil      56. 70.100 / 56. 70.100\n","  libavcodec     58.134.100 / 58.134.100\n","  libavformat    58. 76.100 / 58. 76.100\n","  libavdevice    58. 13.100 / 58. 13.100\n","  libavfilter     7.110.100 /  7.110.100\n","  libswscale      5.  9.100 /  5.  9.100\n","  libswresample   3.  9.100 /  3.  9.100\n","  libpostproc    55.  9.100 / 55.  9.100\n","\u001b[1;36m[mjpeg @ 0x5aaca0a38dc0] \u001b[0m\u001b[0;33mEOI missing, emulating\n","\u001b[0mInput #0, avi, from 'Red_Snapper_Out_2.avi':\n","  Metadata:\n","    software        : Lavf59.27.100\n","  Duration: 00:01:14.13, start: 0.000000, bitrate: 3672 kb/s\n","  Stream #0:0: Video: mjpeg (Baseline) (MJPG / 0x47504A4D), yuvj420p(pc, bt470bg/unknown/unknown), 1280x720, 3667 kb/s, 30 fps, 30 tbr, 30 tbn, 30 tbc\n","Stream mapping:\n","  Stream #0:0 -> #0:0 (mjpeg (native) -> h264 (libx264))\n","Press [q] to stop, [?] for help\n","\u001b[1;36m[libx264 @ 0x5aaca0a3e080] \u001b[0musing cpu capabilities: MMX2 SSE2Fast SSSE3 SSE4.2 AVX FMA3 BMI2 AVX2\n","\u001b[1;36m[libx264 @ 0x5aaca0a3e080] \u001b[0mprofile High, level 3.1, 4:2:0, 8-bit\n","\u001b[1;36m[libx264 @ 0x5aaca0a3e080] \u001b[0m264 - core 163 r3060 5db6aa6 - H.264/MPEG-4 AVC codec - Copyleft 2003-2021 - http://www.videolan.org/x264.html - options: cabac=1 ref=3 deblock=1:0:0 analyse=0x3:0x113 me=hex subme=7 psy=1 psy_rd=1.00:0.00 mixed_ref=1 me_range=16 chroma_me=1 trellis=1 8x8dct=1 cqm=0 deadzone=21,11 fast_pskip=1 chroma_qp_offset=-2 threads=3 lookahead_threads=1 sliced_threads=0 nr=0 decimate=1 interlaced=0 bluray_compat=0 constrained_intra=0 bframes=3 b_pyramid=2 b_adapt=1 b_bias=0 direct=1 weightb=1 open_gop=0 weightp=2 keyint=250 keyint_min=25 scenecut=40 intra_refresh=0 rc_lookahead=40 rc=crf mbtree=1 crf=23.0 qcomp=0.60 qpmin=0 qpmax=69 qpstep=4 ip_ratio=1.40 aq=1:1.00\n","Output #0, mp4, to 'Red_Snapper_Out_2.mp4':\n","  Metadata:\n","    software        : Lavf59.27.100\n","    encoder         : Lavf58.76.100\n","  Stream #0:0: Video: h264 (avc1 / 0x31637661), yuvj420p(pc, bt470bg/unknown/unknown, progressive), 1280x720, q=2-31, 30 fps, 15360 tbn\n","    Metadata:\n","      encoder         : Lavc58.134.100 libx264\n","    Side data:\n","      cpb: bitrate max/min/avg: 0/0/0 buffer size: 0 vbv_delay: N/A\n","frame= 2224 fps= 30 q=-1.0 Lsize=    9749kB time=00:01:14.03 bitrate=1078.7kbits/s speed=1.01x    \n","video:9728kB audio:0kB subtitle:0kB other streams:0kB global headers:0kB muxing overhead: 0.217907%\n","\u001b[1;36m[libx264 @ 0x5aaca0a3e080] \u001b[0mframe I:66    Avg QP:18.13  size:  8636\n","\u001b[1;36m[libx264 @ 0x5aaca0a3e080] \u001b[0mframe P:1280  Avg QP:21.95  size:  5642\n","\u001b[1;36m[libx264 @ 0x5aaca0a3e080] \u001b[0mframe B:878   Avg QP:21.10  size:  2470\n","\u001b[1;36m[libx264 @ 0x5aaca0a3e080] \u001b[0mconsecutive B-frames: 39.5% 18.3% 15.9% 26.3%\n","\u001b[1;36m[libx264 @ 0x5aaca0a3e080] \u001b[0mmb I  I16..4: 22.4% 76.5%  1.1%\n","\u001b[1;36m[libx264 @ 0x5aaca0a3e080] \u001b[0mmb P  I16..4:  1.0% 12.2%  0.8%  P16..4:  2.7%  0.3%  0.1%  0.0%  0.0%    skip:83.0%\n","\u001b[1;36m[libx264 @ 0x5aaca0a3e080] \u001b[0mmb B  I16..4:  0.7%  2.4%  0.3%  B16..8:  6.4%  0.6%  0.0%  direct: 0.3%  skip:89.3%  L0:48.2% L1:50.2% BI: 1.6%\n","\u001b[1;36m[libx264 @ 0x5aaca0a3e080] \u001b[0m8x8 transform intra:82.6% inter:90.9%\n","\u001b[1;36m[libx264 @ 0x5aaca0a3e080] \u001b[0mcoded y,uvDC,uvAC intra: 37.5% 60.7% 50.7% inter: 0.9% 1.5% 0.7%\n","\u001b[1;36m[libx264 @ 0x5aaca0a3e080] \u001b[0mi16 v,h,dc,p: 70%  9%  8% 12%\n","\u001b[1;36m[libx264 @ 0x5aaca0a3e080] \u001b[0mi8 v,h,dc,ddl,ddr,vr,hd,vl,hu: 34% 17% 29%  3%  3%  3%  3%  3%  4%\n","\u001b[1;36m[libx264 @ 0x5aaca0a3e080] \u001b[0mi4 v,h,dc,ddl,ddr,vr,hd,vl,hu: 29% 22% 18%  5%  5%  6%  6%  5%  4%\n","\u001b[1;36m[libx264 @ 0x5aaca0a3e080] \u001b[0mi8c dc,h,v,p: 63% 15% 15%  7%\n","\u001b[1;36m[libx264 @ 0x5aaca0a3e080] \u001b[0mWeighted P-Frames: Y:30.2% UV:27.8%\n","\u001b[1;36m[libx264 @ 0x5aaca0a3e080] \u001b[0mref P L0: 58.6%  6.5% 24.6%  9.6%  0.7%\n","\u001b[1;36m[libx264 @ 0x5aaca0a3e080] \u001b[0mref B L0: 81.0% 16.7%  2.2%\n","\u001b[1;36m[libx264 @ 0x5aaca0a3e080] \u001b[0mref B L1: 97.0%  3.0%\n","\u001b[1;36m[libx264 @ 0x5aaca0a3e080] \u001b[0mkb/s:1074.87\n"]}]},{"cell_type":"code","source":["mp4 = open('Red_Snapper_Out_2.mp4','rb').read()\n","data_url = \"data:video/mp4;base64,\" + b64encode(mp4).decode()"],"metadata":{"id":"tCBXZ4mZKnP8","executionInfo":{"status":"ok","timestamp":1689922324555,"user_tz":-330,"elapsed":419,"user":{"displayName":"dhriti krishnan","userId":"16271907787076285689"}}},"execution_count":20,"outputs":[]},{"cell_type":"code","source":["HTML(\"\"\"\n","<video controls>\n","      <source src=\"%s\" type=\"video/mp4\">\n","</video>\n","\"\"\" % data_url)"],"metadata":{"colab":{"base_uri":"https://localhost:8080/","height":761,"output_embedded_package_id":"1ZJ0RZebapqjShHLALPVkW8v5W1X5lh52"},"id":"VgmoQtvzOGhO","executionInfo":{"status":"ok","timestamp":1689922350008,"user_tz":-330,"elapsed":15356,"user":{"displayName":"dhriti krishnan","userId":"16271907787076285689"}},"outputId":"fc209539-7b75-4747-a2b1-aa119181a421"},"execution_count":21,"outputs":[{"output_type":"display_data","data":{"text/plain":"Output hidden; open in https://colab.research.google.com to view."},"metadata":{}}]}],"metadata":{"colab":{"provenance":[],"authorship_tag":"ABX9TyM3P+ujZVx1jkMtMSvwsMx5"},"kernelspec":{"display_name":"Python 3","name":"python3"},"language_info":{"name":"python"}},"nbformat":4,"nbformat_minor":0}